<svg xmlns="http://www.w3.org/2000/svg" xmlns:xlink="http://www.w3.org/1999/xlink" xmlns:lucid="lucid" width="1116.86" height="780"><g transform="translate(-143.1388888888889 -240)" lucid:page-tab-id=".Q4MUjXso07N"><path d="M402.78 265a5 5 0 0 1 5-5h543.54a5 5 0 0 1 5 5v730a5 5 0 0 1-5 5H407.78a5 5 0 0 1-5-5z" stroke="#333" stroke-width="2" fill="#edf5ff"/><use xlink:href="#a" transform="matrix(1,0,0,1,410.7771404371331,268) translate(118.59876543209876 14.222222222222221)"/><use xlink:href="#b" transform="matrix(1,0,0,1,410.7771404371331,268) translate(275.7901234567901 14.222222222222221)"/><use xlink:href="#c" transform="matrix(1,0,0,1,410.7771404371331,268) translate(343.48765432098764 14.222222222222221)"/><path d="M259.75 279.75c0 10.9-8.84 19.75-19.75 19.75-10.9 0-19.75-8.84-19.75-19.75 0-10.9 8.84-19.75 19.75-19.75 10.9 0 19.75 8.84 19.75 19.75z" stroke="#9391ff" stroke-width="4" fill="#fff"/><path d="M240 299.5v50.3a17.25 17.25 0 0 0 2.67 9.22L280 418m-40-63.2L200 418m0-98.75h80" stroke="#9391ff" stroke-width="4" fill="none"/><path d="M200 265a5 5 0 0 1 5-5h70a5 5 0 0 1 5 5v170a5 5 0 0 1-5 5h-70a5 5 0 0 1-5-5z" fill="none"/><use xlink:href="#d" transform="matrix(1,0,0,1,120,418) translate(45.1388888888889 14.000000000000002)"/><use xlink:href="#e" transform="matrix(1,0,0,1,120,418) translate(138.36111111111111 14.000000000000002)"/><path d="M1098.85 279.75c0 10.9-8.85 19.75-19.75 19.75s-19.75-8.84-19.75-19.75c0-10.9 8.84-19.75 19.75-19.75 10.9 0 19.75 8.84 19.75 19.75z" stroke="#9391ff" stroke-width="4" fill="#fff"/><path d="M1079.1 299.5v50.3a17.25 17.25 0 0 0 2.67 9.22L1119.1 418m-40-63.2l-40 63.2m0-98.75h80" stroke="#9391ff" stroke-width="4" fill="none"/><path d="M1039.1 265a5 5 0 0 1 5-5h70a5 5 0 0 1 5 5v170a5 5 0 0 1-5 5h-70a5 5 0 0 1-5-5z" fill="none"/><use xlink:href="#f" transform="matrix(1,0,0,1,959.0960281258463,418) translate(88.97222222222223 14.000000000000002)"/><path d="M700 400c0 33.14-44.77 60-100 60s-100-26.86-100-60 44.77-60 100-60 100 26.86 100 60z" stroke="#fff" fill="#3278cc"/><use xlink:href="#g" transform="matrix(1,0,0,1,530,363.99896332548343) translate(17.592592592592588 27.111111111111114)"/><use xlink:href="#h" transform="matrix(1,0,0,1,530,363.99896332548343) translate(5.648148148148152 53.77777777777778)"/><use xlink:href="#i" transform="matrix(1,0,0,1,530,363.99896332548343) translate(59.90740740740741 53.77777777777778)"/><path d="M813.9 620c0 33.14-56.85 60-126.96 60-70.1 0-126.94-26.86-126.94-60s56.83-60 126.94-60c70.1 0 126.95 26.86 126.95 60z" stroke="#fff" fill="#3278cc"/><use xlink:href="#j" transform="matrix(1,0,0,1,598.0831134591465,583.9994816627417) translate(30.419753086419746 17.77777777777778)"/><use xlink:href="#k" transform="matrix(1,0,0,1,598.0831134591465,583.9994816627417) translate(130.35802469135803 17.77777777777778)"/><use xlink:href="#l" transform="matrix(1,0,0,1,598.0831134591465,583.9994816627417) translate(3.3209876543209873 44.44444444444444)"/><use xlink:href="#m" transform="matrix(1,0,0,1,598.0831134591465,583.9994816627417) translate(116.77777777777779 44.44444444444444)"/><use xlink:href="#n" transform="matrix(1,0,0,1,598.0831134591465,583.9994816627417) translate(31.09876543209876 71.11111111111111)"/><path d="M825.1 850c0 38.66-61.85 70-138.16 70-76.3 0-138.16-31.34-138.16-70s61.86-70 138.16-70 138.16 31.34 138.16 70z" stroke="#fff" fill="#3278cc"/><use xlink:href="#o" transform="matrix(1,0,0,1,590.2321008394389,808) translate(47.061728395061735 17.77777777777778)"/><use xlink:href="#p" transform="matrix(1,0,0,1,590.2321008394389,808) translate(77.92592592592592 17.77777777777778)"/><use xlink:href="#q" transform="matrix(1,0,0,1,590.2321008394389,808) translate(4.438271604938265 44.44444444444444)"/><use xlink:href="#r" transform="matrix(1,0,0,1,590.2321008394389,808) translate(116.72222222222223 44.44444444444444)"/><use xlink:href="#s" transform="matrix(1,0,0,1,590.2321008394389,808) translate(42.70987654320987 71.11111111111111)"/><use xlink:href="#t" transform="matrix(1,0,0,1,590.2321008394389,808) translate(73.57407407407408 71.11111111111111)"/><use xlink:href="#u" transform="matrix(1,0,0,1,590.2321008394389,808) translate(53.20370370370371 97.77777777777777)"/><path d="M242.5 350.1L499 399.9M242.5 350.1l-3.44-.67" stroke="#333" fill="none"/><path d="M499.5 399.5v1l-.6-.1.2-1z" stroke="#333" stroke-width=".05" fill="#333"/><path d="M242.4 350.32L559.1 619.68M242.4 350.33l-2.68-2.27" stroke="#333" fill="none"/><path d="M559.5 619.35v1.31l-.7-.6.63-.77z" stroke="#333" stroke-width=".05" fill="#333"/><path d="M1076.6 350.07L701 399.93M1076.6 350.07l3.47-.46" stroke="#000" fill="none"/><path d="M701.07 400.43l-.58.08v-1l.44-.06z" stroke="#000" stroke-width=".05"/><path d="M980 773.07a16 16 0 0 1 16-16h228a16 16 0 0 1 16 16V984a16 16 0 0 1-16 16H996a16 16 0 0 1-16-16z" stroke="#4c535d" stroke-width="2" fill="#fff"/><path d="M1036 836c0 6.63-5.37 12-12 12s-12-5.37-12-12 5.37-12 12-12 12 5.37 12 12z" stroke="#000" stroke-opacity=".25"/><path d="M1036 868c0 6.63-5.37 12-12 12s-12-5.37-12-12 5.37-12 12-12 12 5.37 12 12z" stroke="#000" stroke-opacity=".25" fill="#1071e5"/><path d="M1036 900c0 6.63-5.37 12-12 12s-12-5.37-12-12 5.37-12 12-12 12 5.37 12 12z" stroke="#000" stroke-opacity=".25" fill="#9391ff"/><path d="M1036 932c0 6.63-5.37 12-12 12s-12-5.37-12-12 5.37-12 12-12 12 5.37 12 12z" stroke="#000" stroke-opacity=".25" fill="#008a0e"/><path d="M1036 964c0 6.63-5.37 12-12 12s-12-5.37-12-12 5.37-12 12-12 12 5.37 12 12z" stroke="#000" stroke-opacity=".25" fill="#fcce14"/><use xlink:href="#v" transform="matrix(1,0,0,1,1012,781.0666666666666) translate(0 17.988888888888887)"/><use xlink:href="#w" transform="matrix(1,0,0,1,1012,781.0666666666666) translate(95.88765432098764 17.988888888888887)"/><use xlink:href="#x" transform="matrix(1,0,0,1,1048,856) translate(0 15.688888888888888)"/><use xlink:href="#y" transform="matrix(1,0,0,1,1048,856) translate(37.86234567901234 15.688888888888888)"/><use xlink:href="#z" transform="matrix(1,0,0,1,1048,888) translate(0 15.688888888888888)"/><use xlink:href="#A" transform="matrix(1,0,0,1,1048,888) translate(54.25740740740739 15.688888888888888)"/><use xlink:href="#B" transform="matrix(1,0,0,1,1048,824) translate(0 15.688888888888886)"/><use xlink:href="#C" transform="matrix(1,0,0,1,1048,920) translate(0 15.688888888888888)"/><use xlink:href="#D" transform="matrix(1,0,0,1,1048,920) translate(53.02283950617283 15.688888888888888)"/><use xlink:href="#E" transform="matrix(1,0,0,1,1048,952) translate(0 15.688888888888888)"/><use xlink:href="#F" transform="matrix(1,0,0,1,1048,952) translate(54.2574074074074 15.688888888888888)"/><use xlink:href="#G" transform="matrix(1,0,0,1,1048,952) translate(95.14259259259259 15.688888888888888)"/><path d="M279.75 539.75c0 10.9-8.84 19.75-19.75 19.75-10.9 0-19.75-8.84-19.75-19.75 0-10.9 8.84-19.75 19.75-19.75 10.9 0 19.75 8.84 19.75 19.75z" stroke="#fcce14" stroke-width="4" fill="#fff"/><path d="M260 559.5v47.3a27.6 27.6 0 0 0 4.28 14.76L300 678m-40-63.2L220 678m0-98.75h80" stroke="#fcce14" stroke-width="4" fill="none"/><path d="M220 528a8 8 0 0 1 8-8h64a8 8 0 0 1 8 8v164a8 8 0 0 1-8 8h-64a8 8 0 0 1-8-8z" fill="none"/><use xlink:href="#H" transform="matrix(1,0,0,1,140,678) translate(83.6280864197531 16.177777777777774)"/><path d="M262.58 609.67l135.8-120.2c-1.82-2.05-1.63-5.2.44-7.04 2.06-1.83 5.22-1.64 7.05.43l93.26-82.53M262.6 609.66l-2.64 2.33" stroke="#333" fill="none"/><path d="M499.5 400v.66l-.05.05-.67-.74.74-.64z" stroke="#333" stroke-width=".05" fill="#333"/><path d="M1199.75 459.75c0 10.9-8.84 19.75-19.75 19.75-10.9 0-19.75-8.84-19.75-19.75 0-10.9 8.84-19.75 19.75-19.75 10.9 0 19.75 8.84 19.75 19.75z" stroke="#008a0e" stroke-width="4" fill="#fff"/><path d="M1180 479.5v47.3a27.6 27.6 0 0 0 4.28 14.76L1220 598m-40-63.2l-40 63.2m0-98.75h80" stroke="#008a0e" stroke-width="4" fill="none"/><path d="M1140 448a8 8 0 0 1 8-8h64a8 8 0 0 1 8 8v164a8 8 0 0 1-8 8h-64a8 8 0 0 1-8-8z" fill="none"/><g><use xlink:href="#I" transform="matrix(1,0,0,1,1060,598) translate(74.55617283950617 16.177777777777777)"/><use xlink:href="#J" transform="matrix(1,0,0,1,1060,598) translate(112.7537037037037 16.177777777777777)"/></g><path d="M1177.8 530.74L701 400.14M1177.8 530.73l3.4.93" stroke="#000" fill="none"/><path d="M701.13 399.65l-.27.97-.37-.1v-1.04z" stroke="#000" stroke-width=".05"/><path d="M262.7 610.02l296.3 9.96M262.72 610.02l-3.5-.12" stroke="#333" fill="none"/><path d="M559.5 619.5v1l-.53-.02.03-1z" stroke="#333" stroke-width=".05" fill="#333"/><path d="M1077.9 559.75c0 10.9-8.83 19.75-19.74 19.75-10.9 0-19.75-8.84-19.75-19.75 0-10.9 8.85-19.75 19.76-19.75 10.9 0 19.75 8.84 19.75 19.75z" stroke="#008a0e" stroke-width="4" fill="#fff"/><path d="M1058.16 579.5v47.3a27.6 27.6 0 0 0 4.28 14.76l35.72 56.44m-40-63.2l-40 63.2m0-98.75h80" stroke="#008a0e" stroke-width="4" fill="none"/><path d="M1018.16 548a8 8 0 0 1 8-8h64a8 8 0 0 1 8 8v164a8 8 0 0 1-8 8h-64a8 8 0 0 1-8-8z" fill="none"/><g><use xlink:href="#I" transform="matrix(1,0,0,1,938.1594438443565,698) translate(52.64876543209877 16.177777777777777)"/><use xlink:href="#K" transform="matrix(1,0,0,1,938.1594438443565,698) translate(90.8462962962963 16.177777777777777)"/></g><path d="M1055.9 630.44l-241-10.42M1055.88 630.44l3.5.15" stroke="#000" fill="none"/><path d="M814.92 619.52l-.04 1-.5-.02v-1z" stroke="#000" stroke-width=".05"/><defs><path fill="#333" d="M183 0l-10-63H79L44 0H-7l138-248h61L234 0h-51zm-14-102l-15-108c-16 38-36 73-55 108h70" id="L"/><path fill="#333" d="M156-122c2-23-7-37-28-37-47 0-58 44-58 89 0 24 12 40 36 40 43 0 47-49 50-92zM-8 75l50-265h48c0 10-3 24-3 30 22-50 127-45 121 29-6 73-21 135-92 135-29 0-46-14-55-35L41 75H-8" id="M"/><path fill="#333" d="M6 0l51-261h49L55 0H6" id="N"/><path fill="#333" d="M50-224l7-37h49l-7 37H50zM6 0l37-190h49L55 0H6" id="O"/><path fill="#333" d="M67-101c-8 29-7 73 27 71 23-2 32-16 39-37l48 9C170-19 141 4 91 4 36 4 7-28 12-86c6-75 61-124 140-103 26 7 40 29 43 59l-50 4c-1-20-9-34-29-34-35 0-41 29-49 59" id="P"/><path fill="#333" d="M166-52c-4 17 5 29 24 23l-3 27c-30 11-74 1-67-34C105-15 91 4 56 4 23 4 3-15 2-49c0-64 63-67 128-67 10-22 3-53-29-45-13 3-22 10-25 24l-46-5c5-64 156-77 153 0-1 33-11 60-17 90zM97-88c-44-9-64 57-19 57 31 0 42-28 47-57H97" id="Q"/><path fill="#333" d="M-6 0l7-35 114-120H31l7-35h142l-7 35L59-36h100l-7 36H-6" id="R"/><path fill="#333" d="M124-194c51 0 84 22 84 74C207-44 167 4 94 4 43 4 11-23 11-74c0-74 41-120 113-120zM99-30c46 0 58-42 58-86 0-27-11-44-37-44-44 0-55 40-57 84-1 27 10 45 36 46" id="S"/><path fill="#333" d="M151-194c95 0 34 128 28 194h-49l25-134c0-29-45-25-59-9C67-111 69-48 56 0H6l36-190h47l-4 32c15-20 33-36 66-36" id="T"/><path fill="#333" d="M114-194c63-2 87 48 72 110H63c-3 28 1 55 31 54 21-1 32-13 37-29l44 13C160-14 137 4 91 4 41 4 11-22 11-73c0-71 33-119 103-121zm30 77c14-47-50-61-67-22-3 6-6 13-8 22h75" id="U"/><g id="a"><use transform="matrix(0.06790123456790123,0,0,0.06790123456790123,0,0)" xlink:href="#L"/><use transform="matrix(0.06790123456790123,0,0,0.06790123456790123,17.586419753086417,0)" xlink:href="#M"/><use transform="matrix(0.06790123456790123,0,0,0.06790123456790123,32.456790123456784,0)" xlink:href="#M"/><use transform="matrix(0.06790123456790123,0,0,0.06790123456790123,47.32716049382715,0)" xlink:href="#N"/><use transform="matrix(0.06790123456790123,0,0,0.06790123456790123,54.11728395061728,0)" xlink:href="#O"/><use transform="matrix(0.06790123456790123,0,0,0.06790123456790123,60.907407407407405,0)" xlink:href="#P"/><use transform="matrix(0.06790123456790123,0,0,0.06790123456790123,74.48765432098764,0)" xlink:href="#Q"/><use transform="matrix(0.06790123456790123,0,0,0.06790123456790123,88.0679012345679,0)" xlink:href="#R"/><use transform="matrix(0.06790123456790123,0,0,0.06790123456790123,100.29012345679013,0)" xlink:href="#O"/><use transform="matrix(0.06790123456790123,0,0,0.06790123456790123,107.08024691358025,0)" xlink:href="#S"/><use transform="matrix(0.06790123456790123,0,0,0.06790123456790123,121.95061728395062,0)" xlink:href="#T"/><use transform="matrix(0.06790123456790123,0,0,0.06790123456790123,136.820987654321,0)" xlink:href="#U"/></g><path fill="#333" d="M178-136c88 48 22 151-73 140C49-3 12-15 4-64l51-9c1 50 111 53 115 3-16-63-132-20-133-112 0-93 190-91 199-10l-50 12c-4-41-93-50-97-4 7 38 59 32 89 48" id="V"/><path fill="#333" d="M150-105c8-23 8-54-22-51-68 7-54 98-72 156H6l50-261h50L85-158c15-20 33-36 66-36 95 0 34 128 28 194h-49" id="W"/><g id="b"><use transform="matrix(0.06790123456790123,0,0,0.06790123456790123,0,0)" xlink:href="#V"/><use transform="matrix(0.06790123456790123,0,0,0.06790123456790123,16.296296296296294,0)" xlink:href="#W"/><use transform="matrix(0.06790123456790123,0,0,0.06790123456790123,31.166666666666664,0)" xlink:href="#S"/><use transform="matrix(0.06790123456790123,0,0,0.06790123456790123,46.03703703703703,0)" xlink:href="#M"/></g><path fill="#333" d="M18-101c0-91 52-150 145-150 68 0 111 34 111 101C274-54 221 4 128 4 59 4 18-33 18-101zm202-32c4-46-15-77-59-77-65 0-88 46-91 108-2 41 22 65 60 65 60 0 84-40 90-96" id="X"/><g id="c"><use transform="matrix(0.06790123456790123,0,0,0.06790123456790123,0,0)" xlink:href="#X"/><use transform="matrix(0.06790123456790123,0,0,0.06790123456790123,19.012345679012345,0)" xlink:href="#T"/><use transform="matrix(0.06790123456790123,0,0,0.06790123456790123,33.882716049382715,0)" xlink:href="#N"/><use transform="matrix(0.06790123456790123,0,0,0.06790123456790123,40.672839506172835,0)" xlink:href="#O"/><use transform="matrix(0.06790123456790123,0,0,0.06790123456790123,47.46296296296296,0)" xlink:href="#T"/><use transform="matrix(0.06790123456790123,0,0,0.06790123456790123,62.33333333333333,0)" xlink:href="#U"/></g><path fill="#333" d="M14 0l48-248h34L48 0H14" id="Y"/><path fill="#333" d="M248-111c6-24 9-61-24-58-72 9-57 108-77 169h-31l26-142c3-37-50-30-64-10C52-115 50-51 37 0H6l36-190h30c-1 10-6 24-4 32 13-43 101-52 105 5 13-22 29-41 61-41 90 0 28 129 23 194h-31" id="Z"/><path fill="#333" d="M67-162c32-53 139-36 121 50C175-51 163 2 97 4 68 4 52-11 42-31 38 6 28 39 22 75H-9l50-265h29c-1 10 0 20-3 28zm89 36c0-26-10-43-35-43-54 0-67 50-69 103-1 29 14 45 42 46 53 0 62-58 62-106" id="aa"/><path fill="#333" d="M50-231l6-30h32l-6 30H50zM6 0l37-190h31L37 0H6" id="ab"/><path fill="#333" d="M111-194c62-3 86 47 72 106H45c-7 38 6 69 45 68 27-1 43-14 53-32l24 11C152-15 129 4 87 4 38 3 12-23 12-71c0-70 32-119 99-123zm44 81c14-66-71-72-95-28-4 8-8 17-11 28h106" id="ac"/><path fill="#333" d="M103-194c29 0 47 14 56 36 2-11 5-23 8-32h30L160-5C157 61 82 97 21 62 9 55 4 45 1 30l28-7c7 42 83 31 92-3 4-16 9-38 13-55-13 20-29 36-62 36-40 0-60-25-60-64 0-71 23-131 91-131zm4 24c-53 0-58 54-61 104-2 27 10 44 36 44 49 0 65-50 67-102 1-29-15-46-42-46" id="ad"/><path fill="#333" d="M165-48c-4 18 1 34 23 27l-3 20c-29 8-62 0-52-35h-2C116-14 99 4 63 4 30 4 8-16 8-49c0-68 71-67 138-67 10-26 0-56-31-54-26 1-42 9-47 31l-32-5c8-67 160-71 144 15-5 28-9 54-15 81zM42-50c3 52 80 24 89-6 7-12 7-24 11-38-47 1-103-4-100 44" id="ae"/><path fill="#333" d="M51-54c-9 22 5 41 31 30L79-1C43 14 10-4 19-52l22-115H19l5-23h22l19-43h21l-9 43h35l-4 23H73" id="af"/><path fill="#333" d="M30-147c31-64 166-65 159 27C183-49 158 1 86 4 9 8 1-88 30-147zM88-20c53 0 68-48 68-100 0-31-11-51-44-50-52 1-68 46-68 97 0 32 13 53 44 53" id="ag"/><g id="d"><use transform="matrix(0.055555555555555546,0,0,0.055555555555555546,0,0)" xlink:href="#Y"/><use transform="matrix(0.055555555555555546,0,0,0.055555555555555546,5.5555555555555545,0)" xlink:href="#Z"/><use transform="matrix(0.055555555555555546,0,0,0.055555555555555546,22.16666666666666,0)" xlink:href="#aa"/><use transform="matrix(0.055555555555555546,0,0,0.055555555555555546,33.27777777777777,0)" xlink:href="#ab"/><use transform="matrix(0.055555555555555546,0,0,0.055555555555555546,37.66666666666666,0)" xlink:href="#ac"/><use transform="matrix(0.055555555555555546,0,0,0.055555555555555546,48.777777777777764,0)" xlink:href="#ad"/><use transform="matrix(0.055555555555555546,0,0,0.055555555555555546,59.888888888888864,0)" xlink:href="#ae"/><use transform="matrix(0.055555555555555546,0,0,0.055555555555555546,70.99999999999999,0)" xlink:href="#af"/><use transform="matrix(0.055555555555555546,0,0,0.055555555555555546,76.55555555555554,0)" xlink:href="#ag"/></g><path fill="#333" d="M187 0l-14-72H61L19 0h-37l149-248h38L221 0h-34zm-19-99l-22-123L76-99h92" id="ah"/><path fill="#333" d="M6 0l50-261h32L37 0H6" id="ai"/><path fill="#333" d="M66-151c12-25 30-51 66-40l-6 26C45-176 58-65 38 0H6l36-190h30" id="aj"/><g id="e"><use transform="matrix(0.055555555555555546,0,0,0.055555555555555546,0,0)" xlink:href="#ah"/><use transform="matrix(0.055555555555555546,0,0,0.055555555555555546,13.33333333333333,0)" xlink:href="#af"/><use transform="matrix(0.055555555555555546,0,0,0.055555555555555546,18.888888888888886,0)" xlink:href="#ac"/><use transform="matrix(0.055555555555555546,0,0,0.055555555555555546,29.999999999999993,0)" xlink:href="#ai"/><use transform="matrix(0.055555555555555546,0,0,0.055555555555555546,34.38888888888888,0)" xlink:href="#ab"/><use transform="matrix(0.055555555555555546,0,0,0.055555555555555546,38.777777777777764,0)" xlink:href="#ac"/><use transform="matrix(0.055555555555555546,0,0,0.055555555555555546,49.88888888888887,0)" xlink:href="#aj"/></g><path fill="#333" d="M125-24c46 0 70-25 89-51l25 16C214-24 183 4 123 4 8 4-5-146 60-208c32-50 158-61 191-5 5 7 9 14 11 22l-32 10c-9-28-33-43-69-43-74 0-108 51-108 125 0 46 24 75 72 75" id="ak"/><path fill="#333" d="M67-158c22-48 132-52 116 29L158 0h-32l25-140c3-38-53-32-70-12C52-117 51-52 38 0H6l36-190h30" id="al"/><g id="f"><use transform="matrix(0.055555555555555546,0,0,0.055555555555555546,0,0)" xlink:href="#ak"/><use transform="matrix(0.055555555555555546,0,0,0.055555555555555546,14.388888888888886,0)" xlink:href="#ai"/><use transform="matrix(0.055555555555555546,0,0,0.055555555555555546,18.777777777777775,0)" xlink:href="#ab"/><use transform="matrix(0.055555555555555546,0,0,0.055555555555555546,23.166666666666664,0)" xlink:href="#ac"/><use transform="matrix(0.055555555555555546,0,0,0.055555555555555546,34.27777777777777,0)" xlink:href="#al"/><use transform="matrix(0.055555555555555546,0,0,0.055555555555555546,45.38888888888888,0)" xlink:href="#af"/><use transform="matrix(0.055555555555555546,0,0,0.055555555555555546,50.944444444444436,0)" xlink:href="#ac"/></g><path fill="#fff" d="M187 0l-14-72H61L19 0h-37l149-248h38L221 0h-34zm-19-99l-22-123L76-99h92" id="am"/><path fill="#fff" d="M44-68c0 29 11 47 38 47 30 0 42-19 51-41l28 9C148-21 126 4 82 4 31 4 10-29 12-85c3-77 74-140 146-93 12 8 15 23 18 40l-31 5c-1-22-13-36-36-36-52 0-65 49-65 101" id="an"/><path fill="#fff" d="M133-28C103 26-5 8 13-77c13-62 24-115 90-117 29-1 46 15 56 35 2-12 6-24 8-34h31L144 75h-31zM45-64c-2 27 10 43 35 43 54-1 69-50 69-103 0-29-15-46-42-46-53-1-58 58-62 106" id="ao"/><path fill="#fff" d="M67 3c-93-2-31-127-26-193h32L48-50c-3 39 53 32 70 12 30-34 30-101 43-152h32L157 0h-30c1-10 6-24 4-33-14 20-29 37-64 36" id="ap"/><path fill="#fff" d="M50-231l6-30h32l-6 30H50zM6 0l37-190h31L37 0H6" id="aq"/><path fill="#fff" d="M55-144c13 50 104 24 104 88C159 21 15 23 1-39l26-10c6 40 102 42 102-4-13-50-104-23-104-87 0-71 143-71 148-8l-29 4c-5-35-85-37-89 0" id="ar"/><path fill="#fff" d="M51-54c-9 22 5 41 31 30L79-1C43 14 10-4 19-52l22-115H19l5-23h22l19-43h21l-9 43h35l-4 23H73" id="as"/><path fill="#fff" d="M165-48c-4 18 1 34 23 27l-3 20c-29 8-62 0-52-35h-2C116-14 99 4 63 4 30 4 8-16 8-49c0-68 71-67 138-67 10-26 0-56-31-54-26 1-42 9-47 31l-32-5c8-67 160-71 144 15-5 28-9 54-15 81zM42-50c3 52 80 24 89-6 7-12 7-24 11-38-47 1-103-4-100 44" id="at"/><path fill="#fff" d="M66-151c12-25 30-51 66-40l-6 26C45-176 58-65 38 0H6l36-190h30" id="au"/><path fill="#fff" d="M111-194c62-3 86 47 72 106H45c-7 38 6 69 45 68 27-1 43-14 53-32l24 11C152-15 129 4 87 4 38 3 12-23 12-71c0-70 32-119 99-123zm44 81c14-66-71-72-95-28-4 8-8 17-11 28h106" id="av"/><g id="g"><use transform="matrix(0.06172839506172839,0,0,0.06172839506172839,0,0)" xlink:href="#am"/><use transform="matrix(0.06172839506172839,0,0,0.06172839506172839,14.814814814814813,0)" xlink:href="#an"/><use transform="matrix(0.06172839506172839,0,0,0.06172839506172839,25.925925925925924,0)" xlink:href="#ao"/><use transform="matrix(0.06172839506172839,0,0,0.06172839506172839,38.2716049382716,0)" xlink:href="#ap"/><use transform="matrix(0.06172839506172839,0,0,0.06172839506172839,50.61728395061728,0)" xlink:href="#aq"/><use transform="matrix(0.06172839506172839,0,0,0.06172839506172839,55.49382716049382,0)" xlink:href="#ar"/><use transform="matrix(0.06172839506172839,0,0,0.06172839506172839,66.60493827160494,0)" xlink:href="#as"/><use transform="matrix(0.06172839506172839,0,0,0.06172839506172839,72.77777777777777,0)" xlink:href="#at"/><use transform="matrix(0.06172839506172839,0,0,0.06172839506172839,85.12345679012346,0)" xlink:href="#au"/><use transform="matrix(0.06172839506172839,0,0,0.06172839506172839,92.46913580246914,0)" xlink:href="#av"/></g><path fill="#fff" d="M68-162c25-46 127-43 121 31C183-60 169 1 98 4 69 5 53-11 43-31L36 0H5l52-261h31zm88 36c2-27-9-43-34-43-55 0-70 51-70 103 0 29 15 45 43 46 52 0 58-58 61-106" id="aw"/><path fill="#fff" d="M30-147c31-64 166-65 159 27C183-49 158 1 86 4 9 8 1-88 30-147zM88-20c53 0 68-48 68-100 0-31-11-51-44-50-52 1-68 46-68 97 0 32 13 53 44 53" id="ax"/><g id="h"><use transform="matrix(0.06172839506172839,0,0,0.06172839506172839,0,0)" xlink:href="#at"/><use transform="matrix(0.06172839506172839,0,0,0.06172839506172839,12.345679012345679,0)" xlink:href="#aw"/><use transform="matrix(0.06172839506172839,0,0,0.06172839506172839,24.691358024691358,0)" xlink:href="#aq"/><use transform="matrix(0.06172839506172839,0,0,0.06172839506172839,29.5679012345679,0)" xlink:href="#as"/><use transform="matrix(0.06172839506172839,0,0,0.06172839506172839,35.74074074074074,0)" xlink:href="#ax"/></g><path fill="#fff" d="M6 0l50-261h32L37 0H6" id="ay"/><path fill="#fff" d="M60-170H36l11-78h32" id="az"/><path fill="#fff" d="M67-162c32-53 139-36 121 50C175-51 163 2 97 4 68 4 52-11 42-31 38 6 28 39 22 75H-9l50-265h29c-1 10 0 20-3 28zm89 36c0-26-10-43-35-43-54 0-67 50-69 103-1 29 14 45 42 46 53 0 62-58 62-106" id="aA"/><g id="i"><use transform="matrix(0.06172839506172839,0,0,0.06172839506172839,0,0)" xlink:href="#ar"/><use transform="matrix(0.06172839506172839,0,0,0.06172839506172839,11.11111111111111,0)" xlink:href="#ap"/><use transform="matrix(0.06172839506172839,0,0,0.06172839506172839,23.45679012345679,0)" xlink:href="#ay"/><use transform="matrix(0.06172839506172839,0,0,0.06172839506172839,28.333333333333336,0)" xlink:href="#ay"/><use transform="matrix(0.06172839506172839,0,0,0.06172839506172839,33.20987654320988,0)" xlink:href="#az"/><use transform="matrix(0.06172839506172839,0,0,0.06172839506172839,37.40740740740741,0)" xlink:href="#at"/><use transform="matrix(0.06172839506172839,0,0,0.06172839506172839,49.75308641975309,0)" xlink:href="#aA"/><use transform="matrix(0.06172839506172839,0,0,0.06172839506172839,62.098765432098766,0)" xlink:href="#aA"/></g><path fill="#fff" d="M133-28C103 26-5 8 13-77c13-62 24-115 90-117 29-1 46 15 56 35l19-102h32L160 0h-30zM45-64c-2 27 10 43 35 43 54-1 69-50 69-103 0-29-15-46-42-46-53-1-58 58-62 106" id="aB"/><g id="j"><use transform="matrix(0.06172839506172839,0,0,0.06172839506172839,0,0)" xlink:href="#am"/><use transform="matrix(0.06172839506172839,0,0,0.06172839506172839,14.814814814814813,0)" xlink:href="#an"/><use transform="matrix(0.06172839506172839,0,0,0.06172839506172839,25.925925925925924,0)" xlink:href="#an"/><use transform="matrix(0.06172839506172839,0,0,0.06172839506172839,37.03703703703704,0)" xlink:href="#av"/><use transform="matrix(0.06172839506172839,0,0,0.06172839506172839,49.382716049382715,0)" xlink:href="#aB"/><use transform="matrix(0.06172839506172839,0,0,0.06172839506172839,61.72839506172839,0)" xlink:href="#av"/><use transform="matrix(0.06172839506172839,0,0,0.06172839506172839,74.07407407407408,0)" xlink:href="#au"/><use transform="matrix(0.06172839506172839,0,0,0.06172839506172839,81.41975308641976,0)" xlink:href="#av"/></g><g id="k"><use transform="matrix(0.06172839506172839,0,0,0.06172839506172839,0,0)" xlink:href="#at"/><use transform="matrix(0.06172839506172839,0,0,0.06172839506172839,12.345679012345679,0)" xlink:href="#ay"/></g><path fill="#fff" d="M248-111c6-24 9-61-24-58-72 9-57 108-77 169h-31l26-142c3-37-50-30-64-10C52-115 50-51 37 0H6l36-190h30c-1 10-6 24-4 32 13-43 101-52 105 5 13-22 29-41 61-41 90 0 28 129 23 194h-31" id="aC"/><path fill="#fff" d="M103-194c29 0 47 14 56 36 2-11 5-23 8-32h30L160-5C157 61 82 97 21 62 9 55 4 45 1 30l28-7c7 42 83 31 92-3 4-16 9-38 13-55-13 20-29 36-62 36-40 0-60-25-60-64 0-71 23-131 91-131zm4 24c-53 0-58 54-61 104-2 27 10 44 36 44 49 0 65-50 67-102 1-29-15-46-42-46" id="aD"/><path fill="#fff" d="M-8 0l5-24 140-142H31l5-24h145l-5 24L36-24h119l-5 24H-8" id="aE"/><path fill="#fff" d="M67-158c22-48 132-52 116 29L158 0h-32l25-140c3-38-53-32-70-12C52-117 51-52 38 0H6l36-190h30" id="aF"/><g id="l"><use transform="matrix(0.06172839506172839,0,0,0.06172839506172839,0,0)" xlink:href="#aC"/><use transform="matrix(0.06172839506172839,0,0,0.06172839506172839,18.456790123456788,0)" xlink:href="#at"/><use transform="matrix(0.06172839506172839,0,0,0.06172839506172839,30.80246913580247,0)" xlink:href="#aD"/><use transform="matrix(0.06172839506172839,0,0,0.06172839506172839,43.148148148148145,0)" xlink:href="#at"/><use transform="matrix(0.06172839506172839,0,0,0.06172839506172839,55.49382716049382,0)" xlink:href="#aE"/><use transform="matrix(0.06172839506172839,0,0,0.06172839506172839,66.60493827160494,0)" xlink:href="#aE"/><use transform="matrix(0.06172839506172839,0,0,0.06172839506172839,77.71604938271605,0)" xlink:href="#aq"/><use transform="matrix(0.06172839506172839,0,0,0.06172839506172839,82.5925925925926,0)" xlink:href="#aF"/><use transform="matrix(0.06172839506172839,0,0,0.06172839506172839,94.93827160493828,0)" xlink:href="#ax"/></g><g id="m"><use transform="matrix(0.06172839506172839,0,0,0.06172839506172839,0,0)" xlink:href="#ar"/><use transform="matrix(0.06172839506172839,0,0,0.06172839506172839,11.11111111111111,0)" xlink:href="#aF"/><use transform="matrix(0.06172839506172839,0,0,0.06172839506172839,23.45679012345679,0)" xlink:href="#av"/><use transform="matrix(0.06172839506172839,0,0,0.06172839506172839,35.80246913580247,0)" xlink:href="#ay"/><use transform="matrix(0.06172839506172839,0,0,0.06172839506172839,40.67901234567901,0)" xlink:href="#ay"/><use transform="matrix(0.06172839506172839,0,0,0.06172839506172839,45.55555555555556,0)" xlink:href="#ax"/></g><g id="n"><use transform="matrix(0.06172839506172839,0,0,0.06172839506172839,0,0)" xlink:href="#aB"/><use transform="matrix(0.06172839506172839,0,0,0.06172839506172839,12.345679012345679,0)" xlink:href="#aq"/><use transform="matrix(0.06172839506172839,0,0,0.06172839506172839,17.22222222222222,0)" xlink:href="#aD"/><use transform="matrix(0.06172839506172839,0,0,0.06172839506172839,29.5679012345679,0)" xlink:href="#aq"/><use transform="matrix(0.06172839506172839,0,0,0.06172839506172839,34.44444444444444,0)" xlink:href="#as"/><use transform="matrix(0.06172839506172839,0,0,0.06172839506172839,40.617283950617285,0)" xlink:href="#at"/><use transform="matrix(0.06172839506172839,0,0,0.06172839506172839,52.96296296296296,0)" xlink:href="#ay"/><use transform="matrix(0.06172839506172839,0,0,0.06172839506172839,57.839506172839506,0)" xlink:href="#aq"/><use transform="matrix(0.06172839506172839,0,0,0.06172839506172839,62.71604938271605,0)" xlink:href="#aE"/><use transform="matrix(0.06172839506172839,0,0,0.06172839506172839,73.82716049382717,0)" xlink:href="#aE"/><use transform="matrix(0.06172839506172839,0,0,0.06172839506172839,84.93827160493828,0)" xlink:href="#at"/><use transform="matrix(0.06172839506172839,0,0,0.06172839506172839,97.28395061728396,0)" xlink:href="#as"/><use transform="matrix(0.06172839506172839,0,0,0.06172839506172839,103.4567901234568,0)" xlink:href="#ax"/></g><g id="o"><use transform="matrix(0.06172839506172839,0,0,0.06172839506172839,0,0)" xlink:href="#aB"/><use transform="matrix(0.06172839506172839,0,0,0.06172839506172839,12.345679012345679,0)" xlink:href="#at"/></g><path fill="#fff" d="M89 0H52L20-190h33L74-25l89-165h34" id="aG"/><g id="p"><use transform="matrix(0.06172839506172839,0,0,0.06172839506172839,0,0)" xlink:href="#as"/><use transform="matrix(0.06172839506172839,0,0,0.06172839506172839,6.172839506172839,0)" xlink:href="#au"/><use transform="matrix(0.06172839506172839,0,0,0.06172839506172839,13.518518518518519,0)" xlink:href="#ax"/><use transform="matrix(0.06172839506172839,0,0,0.06172839506172839,25.864197530864196,0)" xlink:href="#aG"/><use transform="matrix(0.06172839506172839,0,0,0.06172839506172839,36.9753086419753,0)" xlink:href="#at"/><use transform="matrix(0.06172839506172839,0,0,0.06172839506172839,49.32098765432098,0)" xlink:href="#au"/><use transform="matrix(0.06172839506172839,0,0,0.06172839506172839,56.66666666666666,0)" xlink:href="#av"/></g><g id="q"><use transform="matrix(0.06172839506172839,0,0,0.06172839506172839,0,0)" xlink:href="#aA"/><use transform="matrix(0.06172839506172839,0,0,0.06172839506172839,12.345679012345679,0)" xlink:href="#au"/><use transform="matrix(0.06172839506172839,0,0,0.06172839506172839,19.691358024691358,0)" xlink:href="#av"/><use transform="matrix(0.06172839506172839,0,0,0.06172839506172839,32.03703703703704,0)" xlink:href="#aF"/><use transform="matrix(0.06172839506172839,0,0,0.06172839506172839,44.382716049382715,0)" xlink:href="#aB"/><use transform="matrix(0.06172839506172839,0,0,0.06172839506172839,56.72839506172839,0)" xlink:href="#av"/><use transform="matrix(0.06172839506172839,0,0,0.06172839506172839,69.07407407407408,0)" xlink:href="#aF"/><use transform="matrix(0.06172839506172839,0,0,0.06172839506172839,81.41975308641976,0)" xlink:href="#aB"/><use transform="matrix(0.06172839506172839,0,0,0.06172839506172839,93.76543209876544,0)" xlink:href="#ax"/></g><g id="r"><use transform="matrix(0.06172839506172839,0,0,0.06172839506172839,0,0)" xlink:href="#ar"/><use transform="matrix(0.06172839506172839,0,0,0.06172839506172839,11.11111111111111,0)" xlink:href="#aA"/><use transform="matrix(0.06172839506172839,0,0,0.06172839506172839,23.45679012345679,0)" xlink:href="#ap"/><use transform="matrix(0.06172839506172839,0,0,0.06172839506172839,35.80246913580247,0)" xlink:href="#aF"/><use transform="matrix(0.06172839506172839,0,0,0.06172839506172839,48.148148148148145,0)" xlink:href="#aB"/><use transform="matrix(0.06172839506172839,0,0,0.06172839506172839,60.49382716049382,0)" xlink:href="#ax"/></g><g id="s"><use transform="matrix(0.06172839506172839,0,0,0.06172839506172839,0,0)" xlink:href="#aB"/><use transform="matrix(0.06172839506172839,0,0,0.06172839506172839,12.345679012345679,0)" xlink:href="#at"/></g><path fill="#fff" d="M67-158c15-20 31-36 64-36 94 0 33 127 27 194h-32l25-140c3-38-53-32-70-12C52-117 51-51 37 0H6l51-261h31" id="aH"/><g id="t"><use transform="matrix(0.06172839506172839,0,0,0.06172839506172839,0,0)" xlink:href="#ao"/><use transform="matrix(0.06172839506172839,0,0,0.06172839506172839,12.345679012345679,0)" xlink:href="#ap"/><use transform="matrix(0.06172839506172839,0,0,0.06172839506172839,24.691358024691358,0)" xlink:href="#at"/><use transform="matrix(0.06172839506172839,0,0,0.06172839506172839,37.03703703703704,0)" xlink:href="#ay"/><use transform="matrix(0.06172839506172839,0,0,0.06172839506172839,41.91358024691358,0)" xlink:href="#an"/><use transform="matrix(0.06172839506172839,0,0,0.06172839506172839,53.0246913580247,0)" xlink:href="#aH"/><use transform="matrix(0.06172839506172839,0,0,0.06172839506172839,65.37037037037038,0)" xlink:href="#av"/></g><path fill="#fff" d="M14 0l8-38h34L48 0H14" id="aI"/><g id="u"><use transform="matrix(0.06172839506172839,0,0,0.06172839506172839,0,0)" xlink:href="#aA"/><use transform="matrix(0.06172839506172839,0,0,0.06172839506172839,12.345679012345679,0)" xlink:href="#at"/><use transform="matrix(0.06172839506172839,0,0,0.06172839506172839,24.691358024691358,0)" xlink:href="#as"/><use transform="matrix(0.06172839506172839,0,0,0.06172839506172839,30.864197530864196,0)" xlink:href="#as"/><use transform="matrix(0.06172839506172839,0,0,0.06172839506172839,37.03703703703704,0)" xlink:href="#av"/><use transform="matrix(0.06172839506172839,0,0,0.06172839506172839,49.382716049382715,0)" xlink:href="#au"/><use transform="matrix(0.06172839506172839,0,0,0.06172839506172839,56.72839506172839,0)" xlink:href="#aF"/><use transform="matrix(0.06172839506172839,0,0,0.06172839506172839,69.07407407407408,0)" xlink:href="#aI"/><use transform="matrix(0.06172839506172839,0,0,0.06172839506172839,75.24691358024691,0)" xlink:href="#aI"/><use transform="matrix(0.06172839506172839,0,0,0.06172839506172839,81.41975308641975,0)" xlink:href="#aI"/></g><path d="M24-248c120-7 223 5 221 122C244-46 201 0 124 0H24v-248zM76-40c74 7 117-18 117-86 0-67-45-88-117-82v168" id="aJ"/><path d="M25-224v-37h50v37H25zM25 0v-190h50V0H25" id="aK"/><path d="M133-34C117-15 103 5 69 4 32 3 11-16 11-54c-1-60 55-63 116-61 1-26-3-47-28-47-18 1-26 9-28 27l-52-2c7-38 36-58 82-57s74 22 75 68l1 82c-1 14 12 18 25 15v27c-30 8-71 5-69-32zm-48 3c29 0 43-24 42-57-32 0-66-3-65 30 0 17 8 27 23 27" id="aL"/><path d="M195-6C206 82 75 100 31 46c-4-6-6-13-8-21l49-6c3 16 16 24 34 25 40 0 42-37 40-79-11 22-30 35-61 35-53 0-70-43-70-97 0-56 18-96 73-97 30 0 46 14 59 34l2-30h47zm-90-29c32 0 41-27 41-63 0-35-9-62-40-62-32 0-39 29-40 63 0 36 9 62 39 62" id="aM"/><path d="M135-150c-39-12-60 13-60 57V0H25l-1-190h47c2 13-1 29 3 40 6-28 27-53 61-41v41" id="aN"/><path d="M220-157c-53 9-28 100-34 157h-49v-107c1-27-5-49-29-50C55-147 81-57 75 0H25l-1-190h47c2 12-1 28 3 38 10-53 101-56 108 0 13-22 24-43 59-42 82 1 51 116 57 194h-49v-107c-1-25-5-48-29-50" id="aO"/><g id="v"><use transform="matrix(0.06234567901234567,0,0,0.06234567901234567,0,0)" xlink:href="#aJ"/><use transform="matrix(0.06234567901234567,0,0,0.06234567901234567,16.147530864197527,0)" xlink:href="#aK"/><use transform="matrix(0.06234567901234567,0,0,0.06234567901234567,22.382098765432094,0)" xlink:href="#aL"/><use transform="matrix(0.06234567901234567,0,0,0.06234567901234567,34.85123456790123,0)" xlink:href="#aM"/><use transform="matrix(0.06234567901234567,0,0,0.06234567901234567,48.50493827160493,0)" xlink:href="#aN"/><use transform="matrix(0.06234567901234567,0,0,0.06234567901234567,57.23333333333332,0)" xlink:href="#aL"/><use transform="matrix(0.06234567901234567,0,0,0.06234567901234567,69.70246913580246,0)" xlink:href="#aO"/></g><path d="M195 0l-88-114-31 24V0H24v-248h52v113l112-113h60L142-143 257 0h-62" id="aP"/><path d="M185-48c-13 30-37 53-82 52C43 2 14-33 14-96s30-98 90-98c62 0 83 45 84 108H66c0 31 8 55 39 56 18 0 30-7 34-22zm-45-69c5-46-57-63-70-21-2 6-4 13-4 21h74" id="aQ"/><path d="M123 10C108 53 80 86 19 72V37c35 8 53-11 59-39L3-190h52l48 148c12-52 28-100 44-148h51" id="aR"/><g id="w"><use transform="matrix(0.06234567901234567,0,0,0.06234567901234567,0,0)" xlink:href="#aP"/><use transform="matrix(0.06234567901234567,0,0,0.06234567901234567,16.147530864197527,0)" xlink:href="#aQ"/><use transform="matrix(0.06234567901234567,0,0,0.06234567901234567,28.61666666666666,0)" xlink:href="#aR"/></g><path d="M232-93c-1 65-40 97-104 97C67 4 28-28 28-90v-158h33c8 89-33 224 67 224 102 0 64-133 71-224h33v155" id="aS"/><path d="M135-143c-3-34-86-38-87 0 15 53 115 12 119 90S17 21 10-45l28-5c4 36 97 45 98 0-10-56-113-15-118-90-4-57 82-63 122-42 12 7 21 19 24 35" id="aT"/><path d="M100-194c63 0 86 42 84 106H49c0 40 14 67 53 68 26 1 43-12 49-29l28 8c-11 28-37 45-77 45C44 4 14-33 15-96c1-61 26-98 85-98zm52 81c6-60-76-77-97-28-3 7-6 17-6 28h103" id="aU"/><g id="x"><use transform="matrix(0.05123456790123456,0,0,0.05123456790123456,0,0)" xlink:href="#aS"/><use transform="matrix(0.05123456790123456,0,0,0.05123456790123456,13.269753086419751,0)" xlink:href="#aT"/><use transform="matrix(0.05123456790123456,0,0,0.05123456790123456,22.491975308641972,0)" xlink:href="#aU"/></g><path d="M96-169c-40 0-48 33-48 73s9 75 48 75c24 0 41-14 43-38l32 2c-6 37-31 61-74 61-59 0-76-41-82-99-10-93 101-131 147-64 4 7 5 14 7 22l-32 3c-4-21-16-35-41-35" id="aV"/><path d="M141-36C126-15 110 5 73 4 37 3 15-17 15-53c-1-64 63-63 125-63 3-35-9-54-41-54-24 1-41 7-42 31l-33-3c5-37 33-52 76-52 45 0 72 20 72 64v82c-1 20 7 32 28 27v20c-31 9-61-2-59-35zM48-53c0 20 12 33 32 33 41-3 63-29 60-74-43 2-92-5-92 41" id="aW"/><g id="y"><use transform="matrix(0.05123456790123456,0,0,0.05123456790123456,0,0)" xlink:href="#aV"/><use transform="matrix(0.05123456790123456,0,0,0.05123456790123456,9.222222222222221,0)" xlink:href="#aW"/><use transform="matrix(0.05123456790123456,0,0,0.05123456790123456,19.469135802469133,0)" xlink:href="#aT"/><use transform="matrix(0.05123456790123456,0,0,0.05123456790123456,28.691358024691354,0)" xlink:href="#aU"/></g><path d="M205 0l-28-72H64L36 0H1l101-248h38L239 0h-34zm-38-99l-47-123c-12 45-31 82-46 123h93" id="aX"/><path d="M59-47c-2 24 18 29 38 22v24C64 9 27 4 27-40v-127H5v-23h24l9-43h21v43h35v23H59v120" id="aY"/><path d="M100-194c62-1 85 37 85 99 1 63-27 99-86 99S16-35 15-95c0-66 28-99 85-99zM99-20c44 1 53-31 53-75 0-43-8-75-51-75s-53 32-53 75 10 74 51 75" id="aZ"/><path d="M114-163C36-179 61-72 57 0H25l-1-190h30c1 12-1 29 2 39 6-27 23-49 58-41v29" id="ba"/><g id="z"><use transform="matrix(0.051234567901234554,0,0,0.051234567901234554,0,0)" xlink:href="#aX"/><use transform="matrix(0.051234567901234554,0,0,0.051234567901234554,12.296296296296292,0)" xlink:href="#aY"/><use transform="matrix(0.051234567901234554,0,0,0.051234567901234554,17.419753086419746,0)" xlink:href="#aY"/><use transform="matrix(0.051234567901234554,0,0,0.051234567901234554,22.5432098765432,0)" xlink:href="#aZ"/><use transform="matrix(0.051234567901234554,0,0,0.051234567901234554,32.79012345679011,0)" xlink:href="#ba"/><use transform="matrix(0.051234567901234554,0,0,0.051234567901234554,38.887037037037025,0)" xlink:href="#aU"/></g><path d="M115-194c55 1 70 41 70 98S169 2 115 4C84 4 66-9 55-30l1 105H24l-1-265h31l2 30c10-21 28-34 59-34zm-8 174c40 0 45-34 45-75s-6-73-45-74c-42 0-51 32-51 76 0 43 10 73 51 73" id="bb"/><path d="M24-231v-30h32v30H24zM24 0v-190h32V0H24" id="bc"/><path d="M117-194c89-4 53 116 60 194h-32v-121c0-31-8-49-39-48C34-167 62-67 57 0H25l-1-190h30c1 10-1 24 2 32 11-22 29-35 61-36" id="bd"/><path d="M24 0v-261h32V0H24" id="be"/><g id="A"><use transform="matrix(0.051234567901234554,0,0,0.051234567901234554,0,0)" xlink:href="#bb"/><use transform="matrix(0.051234567901234554,0,0,0.051234567901234554,10.246913580246911,0)" xlink:href="#ba"/><use transform="matrix(0.051234567901234554,0,0,0.051234567901234554,16.343827160493824,0)" xlink:href="#bc"/><use transform="matrix(0.051234567901234554,0,0,0.051234567901234554,20.391358024691353,0)" xlink:href="#bd"/><use transform="matrix(0.051234567901234554,0,0,0.051234567901234554,30.638271604938264,0)" xlink:href="#aV"/><use transform="matrix(0.051234567901234554,0,0,0.051234567901234554,39.86049382716048,0)" xlink:href="#bc"/><use transform="matrix(0.051234567901234554,0,0,0.051234567901234554,43.90802469135801,0)" xlink:href="#bb"/><use transform="matrix(0.051234567901234554,0,0,0.051234567901234554,54.15493827160493,0)" xlink:href="#aW"/><use transform="matrix(0.051234567901234554,0,0,0.051234567901234554,64.40185185185183,0)" xlink:href="#be"/><use transform="matrix(0.051234567901234554,0,0,0.051234567901234554,68.44938271604936,0)" xlink:href="#aU"/></g><path d="M185-189c-5-48-123-54-124 2 14 75 158 14 163 119 3 78-121 87-175 55-17-10-28-26-33-46l33-7c5 56 141 63 141-1 0-78-155-14-162-118-5-82 145-84 179-34 5 7 8 16 11 25" id="bf"/><path d="M179-190L93 31C79 59 56 82 12 73V49c39 6 53-20 64-50L1-190h34L92-34l54-156h33" id="bg"/><path d="M210-169c-67 3-38 105-44 169h-31v-121c0-29-5-50-35-48C34-165 62-65 56 0H25l-1-190h30c1 10-1 24 2 32 10-44 99-50 107 0 11-21 27-35 58-36 85-2 47 119 55 194h-31v-121c0-29-5-49-35-48" id="bh"/><g id="B"><use transform="matrix(0.05123456790123455,0,0,0.05123456790123455,0,0)" xlink:href="#bf"/><use transform="matrix(0.05123456790123455,0,0,0.05123456790123455,12.29629629629629,0)" xlink:href="#bg"/><use transform="matrix(0.05123456790123455,0,0,0.05123456790123455,21.51851851851851,0)" xlink:href="#aT"/><use transform="matrix(0.05123456790123455,0,0,0.05123456790123455,30.74074074074073,0)" xlink:href="#aY"/><use transform="matrix(0.05123456790123455,0,0,0.05123456790123455,35.86419753086418,0)" xlink:href="#aU"/><use transform="matrix(0.05123456790123455,0,0,0.05123456790123455,46.11111111111109,0)" xlink:href="#bh"/></g><g id="C"><use transform="matrix(0.05123456790123456,0,0,0.05123456790123456,0,0)" xlink:href="#aX"/><use transform="matrix(0.05123456790123456,0,0,0.05123456790123456,12.296296296296294,0)" xlink:href="#aY"/><use transform="matrix(0.05123456790123456,0,0,0.05123456790123456,17.41975308641975,0)" xlink:href="#aY"/><use transform="matrix(0.05123456790123456,0,0,0.05123456790123456,22.543209876543205,0)" xlink:href="#aZ"/><use transform="matrix(0.05123456790123456,0,0,0.05123456790123456,32.79012345679012,0)" xlink:href="#ba"/><use transform="matrix(0.05123456790123456,0,0,0.05123456790123456,38.88703703703703,0)" xlink:href="#aU"/></g><path d="M85-194c31 0 48 13 60 33l-1-100h32l1 261h-30c-2-10 0-23-3-31C134-8 116 4 85 4 32 4 16-35 15-94c0-66 23-100 70-100zm9 24c-40 0-46 34-46 75 0 40 6 74 45 74 42 0 51-32 51-76 0-42-9-74-50-73" id="bi"/><g id="D"><use transform="matrix(0.051234567901234554,0,0,0.051234567901234554,0,0)" xlink:href="#aT"/><use transform="matrix(0.051234567901234554,0,0,0.051234567901234554,9.22222222222222,0)" xlink:href="#aU"/><use transform="matrix(0.051234567901234554,0,0,0.051234567901234554,19.469135802469133,0)" xlink:href="#aV"/><use transform="matrix(0.051234567901234554,0,0,0.051234567901234554,28.691358024691358,0)" xlink:href="#aZ"/><use transform="matrix(0.051234567901234554,0,0,0.051234567901234554,38.938271604938265,0)" xlink:href="#bd"/><use transform="matrix(0.051234567901234554,0,0,0.051234567901234554,49.185185185185176,0)" xlink:href="#bi"/><use transform="matrix(0.051234567901234554,0,0,0.051234567901234554,59.43209876543208,0)" xlink:href="#aW"/><use transform="matrix(0.051234567901234554,0,0,0.051234567901234554,69.679012345679,0)" xlink:href="#ba"/><use transform="matrix(0.051234567901234554,0,0,0.051234567901234554,75.7759259259259,0)" xlink:href="#bc"/><use transform="matrix(0.051234567901234554,0,0,0.051234567901234554,79.82345679012343,0)" xlink:href="#aZ"/></g><g id="E"><use transform="matrix(0.05123456790123456,0,0,0.05123456790123456,0,0)" xlink:href="#aX"/><use transform="matrix(0.05123456790123456,0,0,0.05123456790123456,12.296296296296294,0)" xlink:href="#aY"/><use transform="matrix(0.05123456790123456,0,0,0.05123456790123456,17.41975308641975,0)" xlink:href="#aY"/><use transform="matrix(0.05123456790123456,0,0,0.05123456790123456,22.543209876543205,0)" xlink:href="#aZ"/><use transform="matrix(0.05123456790123456,0,0,0.05123456790123456,32.79012345679012,0)" xlink:href="#ba"/><use transform="matrix(0.05123456790123456,0,0,0.05123456790123456,38.88703703703703,0)" xlink:href="#aU"/></g><path d="M101-234c-31-9-42 10-38 44h38v23H63V0H32v-167H5v-23h27c-7-52 17-82 69-68v24" id="bj"/><path d="M84 4C-5 8 30-112 23-190h32v120c0 31 7 50 39 49 72-2 45-101 50-169h31l1 190h-30c-1-10 1-25-2-33-11 22-28 36-60 37" id="bk"/><g id="F"><use transform="matrix(0.05123456790123456,0,0,0.05123456790123456,0,0)" xlink:href="#bj"/><use transform="matrix(0.05123456790123456,0,0,0.05123456790123456,5.1234567901234565,0)" xlink:href="#bk"/><use transform="matrix(0.05123456790123456,0,0,0.05123456790123456,15.370370370370372,0)" xlink:href="#aZ"/><use transform="matrix(0.05123456790123456,0,0,0.05123456790123456,25.617283950617285,0)" xlink:href="#ba"/><use transform="matrix(0.05123456790123456,0,0,0.05123456790123456,31.714197530864197,0)" xlink:href="#bc"/></g><g id="G"><use transform="matrix(0.05123456790123456,0,0,0.05123456790123456,0,0)" xlink:href="#aT"/><use transform="matrix(0.05123456790123456,0,0,0.05123456790123456,9.222222222222221,0)" xlink:href="#aV"/><use transform="matrix(0.05123456790123456,0,0,0.05123456790123456,18.444444444444443,0)" xlink:href="#aU"/><use transform="matrix(0.05123456790123456,0,0,0.05123456790123456,28.691358024691354,0)" xlink:href="#bd"/><use transform="matrix(0.05123456790123456,0,0,0.05123456790123456,38.938271604938265,0)" xlink:href="#aW"/></g><path fill="#333" d="M212-179c-10-28-35-45-73-45-59 0-87 40-87 99 0 60 29 101 89 101 43 0 62-24 78-52l27 14C228-24 195 4 139 4 59 4 22-46 18-125c-6-104 99-153 187-111 19 9 31 26 39 46" id="bl"/><path fill="#333" d="M100-194c62-1 85 37 85 99 1 63-27 99-86 99S16-35 15-95c0-66 28-99 85-99zM99-20c44 1 53-31 53-75 0-43-8-75-51-75s-53 32-53 75 10 74 51 75" id="bm"/><path fill="#333" d="M114-163C36-179 61-72 57 0H25l-1-190h30c1 12-1 29 2 39 6-27 23-49 58-41v29" id="bn"/><path fill="#333" d="M24-231v-30h32v30H24zM24 0v-190h32V0H24" id="bo"/><path fill="#333" d="M100-194c63 0 86 42 84 106H49c0 40 14 67 53 68 26 1 43-12 49-29l28 8c-11 28-37 45-77 45C44 4 14-33 15-96c1-61 26-98 85-98zm52 81c6-60-76-77-97-28-3 7-6 17-6 28h103" id="bp"/><g id="H"><use transform="matrix(0.056172839506172814,0,0,0.056172839506172814,0,0)" xlink:href="#bl"/><use transform="matrix(0.056172839506172814,0,0,0.056172839506172814,14.548765432098758,0)" xlink:href="#bm"/><use transform="matrix(0.056172839506172814,0,0,0.056172839506172814,25.78333333333332,0)" xlink:href="#bn"/><use transform="matrix(0.056172839506172814,0,0,0.056172839506172814,32.46790123456788,0)" xlink:href="#bn"/><use transform="matrix(0.056172839506172814,0,0,0.056172839506172814,39.15246913580245,0)" xlink:href="#bo"/><use transform="matrix(0.056172839506172814,0,0,0.056172839506172814,43.5901234567901,0)" xlink:href="#bp"/><use transform="matrix(0.056172839506172814,0,0,0.056172839506172814,54.824691358024666,0)" xlink:href="#bn"/><use transform="matrix(0.056172839506172814,0,0,0.056172839506172814,61.50925925925923,0)" xlink:href="#bp"/></g><path fill="#333" d="M205 0l-28-72H64L36 0H1l101-248h38L239 0h-34zm-38-99l-47-123c-12 45-31 82-46 123h93" id="bq"/><path fill="#333" d="M30-248c87 1 191-15 191 75 0 78-77 80-158 76V0H30v-248zm33 125c57 0 124 11 124-50 0-59-68-47-124-48v98" id="br"/><path fill="#333" d="M33 0v-248h34V0H33" id="bs"/><g id="I"><use transform="matrix(0.056172839506172835,0,0,0.056172839506172835,0,0)" xlink:href="#bq"/><use transform="matrix(0.056172839506172835,0,0,0.056172839506172835,13.481481481481481,0)" xlink:href="#br"/><use transform="matrix(0.056172839506172835,0,0,0.056172839506172835,26.962962962962962,0)" xlink:href="#bs"/></g><path fill="#333" d="M185-189c-5-48-123-54-124 2 14 75 158 14 163 119 3 78-121 87-175 55-17-10-28-26-33-46l33-7c5 56 141 63 141-1 0-78-155-14-162-118-5-82 145-84 179-34 5 7 8 16 11 25" id="bt"/><path fill="#333" d="M59-47c-2 24 18 29 38 22v24C64 9 27 4 27-40v-127H5v-23h24l9-43h21v43h35v23H59v120" id="bu"/><path fill="#333" d="M115-194c55 1 70 41 70 98S169 2 115 4C84 4 66-9 55-30l1 105H24l-1-265h31l2 30c10-21 28-34 59-34zm-8 174c40 0 45-34 45-75s-6-73-45-74c-42 0-51 32-51 76 0 43 10 73 51 73" id="bv"/><g id="J"><use transform="matrix(0.056172839506172835,0,0,0.056172839506172835,0,0)" xlink:href="#bt"/><use transform="matrix(0.056172839506172835,0,0,0.056172839506172835,13.481481481481481,0)" xlink:href="#bu"/><use transform="matrix(0.056172839506172835,0,0,0.056172839506172835,19.098765432098766,0)" xlink:href="#bn"/><use transform="matrix(0.056172839506172835,0,0,0.056172839506172835,25.78333333333333,0)" xlink:href="#bo"/><use transform="matrix(0.056172839506172835,0,0,0.056172839506172835,30.220987654320986,0)" xlink:href="#bv"/><use transform="matrix(0.056172839506172835,0,0,0.056172839506172835,41.45555555555555,0)" xlink:href="#bp"/></g><path fill="#333" d="M143 4C61 4 22-44 18-125c-5-107 100-154 193-111 17 8 29 25 37 43l-32 9c-13-25-37-40-76-40-61 0-88 39-88 99 0 61 29 100 91 101 35 0 62-11 79-27v-45h-74v-28h105v86C228-13 192 4 143 4" id="bw"/><path fill="#333" d="M135-143c-3-34-86-38-87 0 15 53 115 12 119 90S17 21 10-45l28-5c4 36 97 45 98 0-10-56-113-15-118-90-4-57 82-63 122-42 12 7 21 19 24 35" id="bx"/><path fill="#333" d="M117-194c89-4 53 116 60 194h-32v-121c0-31-8-49-39-48C34-167 62-67 57 0H25l-1-190h30c1 10-1 24 2 32 11-22 29-35 61-36" id="by"/><path fill="#333" d="M141-36C126-15 110 5 73 4 37 3 15-17 15-53c-1-64 63-63 125-63 3-35-9-54-41-54-24 1-41 7-42 31l-33-3c5-37 33-52 76-52 45 0 72 20 72 64v82c-1 20 7 32 28 27v20c-31 9-61-2-59-35zM48-53c0 20 12 33 32 33 41-3 63-29 60-74-43 2-92-5-92 41" id="bz"/><path fill="#333" d="M24 0v-261h32V0H24" id="bA"/><g id="K"><use transform="matrix(0.056172839506172835,0,0,0.056172839506172835,0,0)" xlink:href="#bw"/><use transform="matrix(0.056172839506172835,0,0,0.056172839506172835,15.728395061728394,0)" xlink:href="#bp"/><use transform="matrix(0.056172839506172835,0,0,0.056172839506172835,26.962962962962962,0)" xlink:href="#bx"/><use transform="matrix(0.056172839506172835,0,0,0.056172839506172835,37.074074074074076,0)" xlink:href="#bu"/><use transform="matrix(0.056172839506172835,0,0,0.056172839506172835,42.69135802469136,0)" xlink:href="#bo"/><use transform="matrix(0.056172839506172835,0,0,0.056172839506172835,47.129012345679016,0)" xlink:href="#bm"/><use transform="matrix(0.056172839506172835,0,0,0.056172839506172835,58.363580246913585,0)" xlink:href="#by"/><use transform="matrix(0.056172839506172835,0,0,0.056172839506172835,69.59814814814816,0)" xlink:href="#bz"/><use transform="matrix(0.056172839506172835,0,0,0.056172839506172835,80.83271604938273,0)" xlink:href="#bA"/><use transform="matrix(0.056172839506172835,0,0,0.056172839506172835,85.27037037037037,0)" xlink:href="#bp"/></g></defs></g></svg>